
<svg width="18px" height="18px" viewBox="0 0 18 18" version="1.1" xmlns="http://www.w3.org/2000/svg" xmlns:xlink="http://www.w3.org/1999/xlink">
    <g id="Page-1" stroke="none" stroke-width="1" fill="none" fill-rule="evenodd">
        <g id="Prepdd---Team-Mgmt---Split-3" transform="translate(-615.000000, -495.000000)">
            <rect fill="#FFFFFF" x="0" y="0" width="1920" height="1080"></rect>
            <g id="Product-Logos-/-SVG-/-Domo" transform="translate(615.000000, 495.000000)">
                <g id="domo">
                    <path d="M3.38625,7.3935 C3.66525,7.704 3.86325,8.08875 3.94875,8.514 C4.1715,7.416 5.14125,6.59025 6.3045,6.59025 C7.46775,6.59025 8.4375,7.41825 8.66025,8.51625 L8.66025,6.59025 L11.06325,8.99325 L13.473,6.59025 L13.473,8.51625 C13.69575,7.41825 14.6655,6.59025 15.82875,6.59025 C16.785,6.59025 17.61075,7.14825 17.99775,7.956 L17.99775,0 L0,0 L0,6.59025 L1.593,6.59025 C2.30625,6.59025 2.9475,6.90075 3.38625,7.3935 Z" id="Path" fill="#9BCBEA" fill-rule="nonzero"></path>
                    <path d="M15.831,11.3985 C14.66775,11.3985 13.698,10.5705 13.47525,9.4725 L13.47525,11.3985 L12.66525,11.3985 L12.66525,8.523 L11.0655,10.1295 L9.459,8.523 L9.459,11.3985 L8.6625,11.3985 L8.6625,9.4725 C8.43975,10.5705 7.47,11.3985 6.30675,11.3985 C5.1435,11.3985 4.17375,10.57275 3.951,9.47475 C3.8655,9.9 3.6675,10.28475 3.3885,10.59525 C2.9475,11.088 2.3085,11.3985 1.59525,11.3985 L0,11.3985 L0,18 L18,18 L18,10.0305 C17.613,10.83825 16.78725,11.3985 15.831,11.3985 Z" id="Path" fill="#9BCBEA" fill-rule="nonzero"></path>
                    <circle id="Oval" fill="#9BCBEA" fill-rule="nonzero" cx="6.3045" cy="8.99325" r="1.60425"></circle>
                    <path d="M3.19725,8.99325 C3.19725,8.14275 2.53575,7.4475 1.69875,7.3935 L0.7965,7.3935 L0.7965,10.593 L1.69875,10.593 C2.53575,10.54125 3.19725,9.84375 3.19725,8.99325 L3.19725,8.99325 Z" id="Path" fill="#9BCBEA" fill-rule="nonzero"></path>
                    <circle id="Oval" fill="#9BCBEA" fill-rule="nonzero" cx="15.831" cy="8.99325" r="1.60425"></circle>
                    <path d="M3.38625,10.593 C3.66525,10.2825 3.86325,9.89775 3.94875,9.4725 C4.1715,10.5705 5.14125,11.39625 6.3045,11.39625 C7.46775,11.39625 8.4375,10.56825 8.66025,9.47025 L8.66025,11.39625 L9.45675,11.39625 L9.45675,8.523 L11.06325,10.1295 L12.663,8.523 L12.663,11.3985 L13.473,11.3985 L13.473,9.4725 C13.69575,10.5705 14.6655,11.3985 15.82875,11.3985 C16.785,11.3985 17.61075,10.8405 17.99775,10.03275 L17.99775,7.95825 C17.61075,7.1505 16.785,6.5925 15.82875,6.5925 C14.6655,6.5925 13.69575,7.4205 13.473,8.5185 L13.473,6.5925 L11.0655,8.99325 L8.66025,6.59025 L8.66025,8.51625 C8.4375,7.41825 7.46775,6.59025 6.3045,6.59025 C5.14125,6.59025 4.1715,7.416 3.94875,8.514 C3.86325,8.08875 3.66525,7.704 3.38625,7.3935 C2.94525,6.90075 2.30625,6.59025 1.593,6.59025 L0,6.59025 L0,11.3985 L1.593,11.3985 C2.30625,11.3985 2.9475,11.088 3.38625,10.593 L3.38625,10.593 Z M15.831,7.39125 C16.7175,7.39125 17.43525,8.109 17.43525,8.9955 C17.43525,9.882 16.7175,10.59975 15.831,10.59975 C14.9445,10.59975 14.22675,9.882 14.22675,8.9955 C14.22675,8.109 14.9445,7.39125 15.831,7.39125 Z M6.3045,7.39125 C7.191,7.39125 7.90875,8.109 7.90875,8.9955 C7.90875,9.882 7.191,10.59975 6.3045,10.59975 C5.418,10.59975 4.70025,9.882 4.70025,8.9955 C4.70025,8.109 5.42025,7.39125 6.3045,7.39125 Z M0.7965,7.3935 L1.69875,7.3935 C2.53575,7.4475 3.19725,8.14275 3.19725,8.99325 C3.19725,9.84375 2.53575,10.539 1.69875,10.593 L0.7965,10.593 L0.7965,7.3935 L0.7965,7.3935 Z" id="Shape" fill="#FFFFFF" fill-rule="nonzero"></path>
                </g>
            </g>
        </g>
    </g>
</svg>