
<svg width="14px" height="18px" viewBox="0 0 14 18" version="1.1" xmlns="http://www.w3.org/2000/svg" xmlns:xlink="http://www.w3.org/1999/xlink">
    <g id="Page-1" stroke="none" stroke-width="1" fill="none" fill-rule="evenodd">
        <g id="Prepdd---Team-Mgmt---Split-3" transform="translate(-745.000000, -434.000000)">
            <rect fill="#FFFFFF" x="0" y="0" width="1920" height="1080"></rect>
            <g id="Product-Logos-/-SVG-/-Drip" transform="translate(743.000000, 434.000000)" fill="#F224F2">
                <g id="drip" transform="translate(2.250000, 0.000000)">
                    <path d="M6.45717464,0.216240267 C6.20689655,0.452502781 5.24983315,1.45361513 4.85939933,1.89210234 C4.2727475,2.54883204 3.61201335,3.35572859 3.07942158,4.0625139 C2.91323693,4.28275862 2.7650723,4.47897664 2.75305895,4.49299221 C2.73704116,4.51701891 2.98731924,4.52502781 3.99443826,4.52502781 L5.2618465,4.52502781 L5.96262514,3.56395996 C6.34705228,3.03737486 6.67341491,2.60889878 6.68542825,2.610901 C6.6974416,2.61490545 7.021802,3.04538376 7.40222469,3.57196885 L8.09699666,4.52302558 L9.356396,4.52502781 C10.0471635,4.52502781 10.6137931,4.52102336 10.6137931,4.51301446 C10.6137931,4.50500556 10.5136819,4.36484983 10.3895439,4.20266963 C9.37041157,2.84516129 8.48342603,1.81802002 7.31813126,0.640711902 L6.68743048,0.00200222469 L6.45717464,0.216240267 Z M2.50678532,6.42313682 C1.88409344,6.49922136 1.39555061,7.02580645 1.35750834,7.66451613 C1.33348165,8.08898776 1.4596218,8.42936596 1.75194661,8.71768632 C1.95617353,8.91790879 2.10634038,9.00400445 2.36462736,9.07007786 C2.68698554,9.15216908 2.94527253,9.12614016 3.26162403,8.97196885 C4.06451613,8.58553949 4.26874305,7.51034483 3.66206897,6.84961068 C3.35973304,6.52324805 2.94927697,6.36907675 2.50678532,6.42313682 L2.50678532,6.42313682 Z M6.51724138,6.42113459 C5.85650723,6.49721913 5.35194661,7.08186874 5.35194661,7.77263626 C5.35394883,8.29121246 5.63826474,8.74972191 6.10278087,8.97397108 C6.41913237,9.12614016 6.67741935,9.1541713 6.99977753,9.07208009 C7.25806452,9.00600667 7.40823137,8.91991101 7.61245829,8.71968854 C8.14505006,8.19510567 8.14705228,7.33615128 7.62246941,6.81156841 C7.32213571,6.50723026 6.93770857,6.37508343 6.51724138,6.42113459 L6.51724138,6.42113459 Z M10.505673,6.42313682 C9.85895439,6.50522803 9.35038932,7.09187987 9.35038932,7.75862069 C9.35038932,8.12502781 9.48854283,8.45939933 9.75083426,8.71968854 C10.0051168,8.97397108 10.345495,9.12013348 10.6858732,9.12013348 C11.1604004,9.12013348 11.6529477,8.80978865 11.8651835,8.38331479 C12.0133482,8.07897664 12.0513904,7.79265851 11.9873192,7.47830923 C11.8451613,6.79555061 11.192436,6.33303671 10.505673,6.42313682 Z M0.0220244716,11.3365962 C0.0480533927,12.1434928 0.168186874,12.796218 0.420467186,13.5070078 C0.943047831,14.9746385 1.96818687,16.2280311 3.32169077,17.0449388 C4.13659622,17.5374861 5.11368187,17.8718576 6.032703,17.9679644 C6.38309232,18.0040044 7.07786429,18 7.42825362,17.9559511 C9.61468298,17.6836485 11.5628476,16.3141268 12.58198,14.3439377 C13.072525,13.3908788 13.3228031,12.3877642 13.3428254,11.2825362 L13.3508343,10.9061179 L12.3497219,10.898109 L11.3466073,10.8941046 L11.3466073,11.1784205 C11.3446051,13.2086763 10.1112347,14.9806452 8.2051168,15.6934372 C7.76462736,15.8556174 7.13392659,15.9757508 6.69944383,15.9757508 C5.22580645,15.9757508 3.70611791,15.1508343 2.86318131,13.8954394 C2.32658509,13.0985539 2.07030033,12.2996663 2.03626251,11.3205784 L2.02224694,10.9081201 L1.01512792,10.9001112 L0.00800889878,10.8961068 L0.0220244716,11.3365962 Z" id="Shape" fill-rule="nonzero"></path>
                </g>
            </g>
        </g>
    </g>
</svg>