<svg width="16px" height="19px" viewBox="0 0 16 19" version="1.1" xmlns="http://www.w3.org/2000/svg" xmlns:xlink="http://www.w3.org/1999/xlink">
    <g id="Page-1" stroke="none" stroke-width="1" fill="none" fill-rule="evenodd">
        <g id="Prepdd---Lists-(mgmt,-admin)---files" transform="translate(-1350.000000, -239.000000)" fill="#529E6C">
            <path d="M1364.85714,255.857143 C1364.85714,256.012 1364.72629,256.142857 1364.57143,256.142857 L1351.42857,256.142857 C1351.27371,256.142857 1351.14286,256.012 1351.14286,255.857143 L1351.14286,240.428571 C1351.14286,240.273714 1351.27371,240.142857 1351.42857,240.142857 L1360,240.142857 C1360.08629,240.142857 1360.18286,240.154286 1360.28571,240.173143 L1360.28571,244.714286 L1364.82686,244.714286 C1364.84629,244.817143 1364.85714,244.914286 1364.85714,245 L1364.85714,255.857143 Z M1364.18171,243.369143 C1364.23771,243.425143 1364.29314,243.493143 1364.34743,243.571429 L1361.42857,243.571429 L1361.42857,240.653143 C1361.50629,240.706857 1361.57486,240.762286 1361.63086,240.818286 L1364.18171,243.369143 Z M1364.98971,242.561143 L1362.43829,240.010286 C1361.88343,239.454286 1360.78571,239 1360,239 L1351.42857,239 C1350.64286,239 1350,239.642857 1350,240.428571 L1350,255.857143 C1350,256.642857 1350.64286,257.285714 1351.42857,257.285714 L1364.57143,257.285714 C1365.35714,257.285714 1366,256.642857 1366,255.857143 L1366,245 C1366,244.214286 1365.54514,243.116571 1364.98971,242.561143 L1364.98971,242.561143 Z M1362.12571,245.857143 L1359.70971,245.857143 L1358,248.375429 L1356.29029,245.857143 L1353.87429,245.857143 L1356.77029,250.186857 L1353.50286,255 L1358.18571,255 L1358.18571,253.365143 L1357.10457,253.365143 L1358,252.025714 L1359.98914,255 L1362.49714,255 L1359.22971,250.186857 L1362.12571,245.857143 Z" id="Fill-9"></path>
        </g>
    </g>
</svg>