
<svg width="20px" height="21px" viewBox="0 0 20 21" version="1.1" xmlns="http://www.w3.org/2000/svg" xmlns:xlink="http://www.w3.org/1999/xlink">
    <defs>
        <polygon id="path-1" points="2.1564079e-06 0 17.1313013 0 17.1313013 20.9523747 2.1564079e-06 20.9523747"></polygon>
    </defs>
    <g id="Page-1" stroke="none" stroke-width="1" fill="none" fill-rule="evenodd">
        <g id="Prepdd---sidebar-big" transform="translate(-1567.000000, -101.000000)">
            <g id="Logo" transform="translate(1567.000000, 101.000000)">
                <path d="M18.0669,6.33621377 L14.9395409,6.33621377 C15.0245133,5.84934627 15.3268558,5.57776738 15.9410635,5.26883446 L16.5174523,4.9785267 C17.547292,4.45428443 18.0952381,3.86433559 18.0952381,2.89989243 C18.0952381,2.29131843 17.8590108,1.81376351 17.3866399,1.46733138 C16.9236662,1.12087851 16.3568211,0.952380952 15.7048781,0.952380952 C15.1851445,0.952380952 14.7127527,1.0833793 14.2780961,1.35495819 C13.8529413,1.61720377 13.5316998,1.95419888 13.3333333,2.37550498 L14.2403608,3.27451119 C14.5899613,2.57218916 15.1001931,2.22575703 15.7710351,2.22575703 C16.3379011,2.22575703 16.6874807,2.51606479 16.6874807,2.91864203 C16.6874807,3.25576158 16.5174523,3.53665306 15.8655093,3.86433559 L15.4970097,4.04227017 C14.6938327,4.44482667 14.1363848,4.90365272 13.8151224,5.42801943 C13.4939646,5.94296985 13.3333333,6.60777193 13.3333333,7.40371754 L13.3333333,7.61904762 L18.0669,7.61904762 L18.0669,6.33621377 Z" id="Fill-1" fill="#FF492C"></path>
                <polygon id="Fill-3" fill="#FF492C" points="17.3809577 9.52380952 12.1428519 9.52380952 9.52380952 13.8095338 14.7619153 13.8095338 17.3809577 18.0952381 20 13.8095338"></polygon>
                <g id="Group-7">
                    <mask id="mask-2" fill="white">
                        <use xlink:href="#path-1"></use>
                    </mask>
                    <g id="Clip-6"></g>
                    <path d="M10.7816733,16.4625518 C7.38451968,16.4625518 4.62074609,13.7770851 4.62074609,10.4761842 C4.62074609,7.17530419 7.38451968,4.48981657 10.7816733,4.48981657 L12.8909348,0.200989905 C12.2087353,0.0695137143 11.5035925,-6.28571428e-06 10.7816733,-6.28571428e-06 C4.82712884,-6.28571428e-06 2.1564079e-06,4.69035181 2.1564079e-06,10.4761842 C2.1564079e-06,16.2620166 4.82712884,20.9523747 10.7816733,20.9523747 C13.1557542,20.9523747 15.3501477,20.2061975 17.1313013,18.9428528 L14.7956248,15.0119556 C13.7165089,15.9148356 12.3140938,16.4625518 10.7816733,16.4625518" id="Fill-5" fill="#FF492C" mask="url(#mask-2)"></path>
                </g>
            </g>
        </g>
    </g>
</svg>