<svg width="39px" height="35px" viewBox="0 0 39 35" version="1.1" xmlns="http://www.w3.org/2000/svg" xmlns:xlink="http://www.w3.org/1999/xlink">
    <g id="Page-1" stroke="none" stroke-width="1" fill="none" fill-rule="evenodd">
        <g id="Prepdd---sidebar-big" transform="translate(-24.000000, -20.000000)" fill="#0E3B5C" fill-rule="nonzero">
            <g id="Group-3" transform="translate(24.000000, 20.000000)">
                <path d="M30.9731112,7.49252112 C31.4838903,8.24488561 31.9386445,9.04046944 32.3311513,9.87287237 L28.5154598,13.7975837 C28.235298,12.8758665 27.8532975,12.0004247 27.3830096,11.1851971 L30.9731112,7.49252112 Z M33.9142403,15.4673598 C33.9892314,16.1342052 34.0277778,16.8124725 34.0277778,17.5 C34.0277778,27.1649831 26.4104003,35 17.0138889,35 C14.4862616,35 12.0873707,34.4330657 9.9308536,33.4160813 L9.9308536,27.5261465 C11.9189388,29.014606 14.366717,29.8927039 17.0138889,29.8927039 C22.5068589,29.8927039 27.1412864,26.1118222 28.5915025,20.9421758 L33.9142403,15.4673598 Z M4.9654268,29.8560064 C1.8969957,26.6905908 -3.55271368e-15,22.3231585 -3.55271368e-15,17.5 C-3.55271368e-15,7.83501688 7.61737752,0 17.0138889,0 C20.0604876,0 22.9200587,0.823639502 25.3936136,2.26624458 L21.6903055,6.07536143 C20.252425,5.451928 18.6722855,5.10729614 17.0138889,5.10729614 C10.5309472,5.10729614 5.24389631,10.3738055 4.97607342,16.9742489 L4.9654268,16.9742489 L4.9654268,29.8560064 Z" id="Combined-Shape"></path>
                <polygon id="Check" points="35.1807889 0 16.5480278 18.36607 10.8192111 12.6406224 7 16.4575874 16.5480278 26 39 3.81696502"></polygon>
            </g>
        </g>
    </g>
</svg>